<?xml version="1.0" encoding="UTF-8"?>
<svg width="24px" height="24px" viewBox="0 0 24 24" version="1.1" xmlns="http://www.w3.org/2000/svg" xmlns:xlink="http://www.w3.org/1999/xlink">
    <!-- Generator: Sketch 50.2 (55047) - http://www.bohemiancoding.com/sketch -->
    <title>Icons / Development</title>
    <desc>Created with Sketch.</desc>
    <defs></defs>
    <g id="Icons-/-Development" stroke="none" stroke-width="1" fill="none" fill-rule="evenodd">
        <g id="Group" transform="translate(2.000000, 2.500000)" stroke="#FFFFFF" stroke-width="2">
            <path d="M13.2278096,2.67788369 C13.6669935,2.87177182 14.0854475,3.10401427 14.4789264,3.37036588 L16.7721904,2.04634926 L20,7.63707941 L17.9165106,8.83998259 C17.9715214,9.218706 18,9.60602724 18,10 C18,10.1895403 17.9934084,10.3775411 17.980442,10.5637856 L20,11.7297779 L16.7721904,17.3205081 L14.962183,16.2754998 C14.4340302,16.6936889 13.8518463,17.0466205 13.2278096,17.3221163 L13.2278096,19.3668573 L6.77219044,19.3668573 L6.77219044,17.3221163 C6.14815368,17.0466205 5.56596975,16.6936889 5.03781699,16.2754998 L3.22780956,17.3205081 L5.76427794e-13,11.7297779 L2.01955799,10.5637856 C2.00659157,10.3775411 2,10.1895403 2,10 C2,9.60602724 2.02847857,9.218706 2.08348942,8.83998259 L5.75095527e-13,7.63707941 L3.22780956,2.04634926 L5.52107361,3.37036588 C5.91455253,3.10401427 6.33300653,2.87177182 6.77219044,2.67788369 L6.77219044,-8.8817842e-16 L13.2278096,0 L13.2278096,2.67788369 Z" id="Combined-Shape" stroke-linecap="round" stroke-linejoin="round"></path>
            <circle id="Oval-4" cx="10" cy="10" r="3"></circle>
        </g>
    </g>
</svg>