<?xml version="1.0" encoding="UTF-8"?>
<svg width="30px" height="30px" viewBox="0 0 30 30" version="1.1" xmlns="http://www.w3.org/2000/svg" xmlns:xlink="http://www.w3.org/1999/xlink">
    <!-- Generator: Sketch 50.2 (55047) - http://www.bohemiancoding.com/sketch -->
    <title>Icons / Rs-linkedin</title>
    <desc>Created with Sketch.</desc>
    <defs></defs>
    <g id="Icons-/-Rs-linkedin" stroke="none" stroke-width="1" fill="none" fill-rule="evenodd">
        <g id="027-linkedin" fill="#0077B7" fill-rule="nonzero">
            <path d="M27.2862565,0 L2.71374346,0 C1.215,0 0,1.215 0,2.71374346 L0,27.286178 C0,28.785 1.215,30 2.71374346,30 L27.286178,30 C28.785,30 30,28.785 30,27.286178 L30,2.71374346 C30,1.215 28.785,0 27.2862565,0 Z M9.28327225,25.9039791 C9.28327225,26.3401571 8.92971204,26.6937173 8.49353403,26.6937173 L5.13180628,26.6937173 C4.69562827,26.6937173 4.34206806,26.3401571 4.34206806,25.9039791 L4.34206806,11.8117539 C4.34206806,11.3755759 4.69562827,11.0220157 5.13180628,11.0220157 L8.49353403,11.0220157 C8.92971204,11.0220157 9.28327225,11.3755759 9.28327225,11.8117539 L9.28327225,25.9039791 Z M6.81267016,9.69361257 C5.04887435,9.69361257 3.61900524,8.26374346 3.61900524,6.49994764 C3.61900524,4.73615183 5.04887435,3.30628272 6.81267016,3.30628272 C8.57646597,3.30628272 10.0063351,4.73615183 10.0063351,6.49994764 C10.0063351,8.26374346 8.5765445,9.69361257 6.81267016,9.69361257 Z M26.8515707,25.9675916 C26.8515707,26.3685864 26.5264398,26.6937173 26.125445,26.6937173 L22.5180628,26.6937173 C22.1170681,26.6937173 21.7919372,26.3685864 21.7919372,25.9675916 L21.7919372,19.3575393 C21.7919372,18.371466 22.081178,15.0365183 19.215,15.0365183 C16.9917801,15.0365183 16.5408377,17.3191885 16.450288,18.3435864 L16.450288,25.9675916 C16.450288,26.3685864 16.1252356,26.6937173 15.7241623,26.6937173 L12.2352094,26.6937173 C11.8342147,26.6937173 11.5090838,26.3685864 11.5090838,25.9675916 L11.5090838,11.7481414 C11.5090838,11.3471466 11.8342147,11.0220157 12.2352094,11.0220157 L15.7241623,11.0220157 C16.1251571,11.0220157 16.450288,11.3471466 16.450288,11.7481414 L16.450288,12.9775916 C17.2746597,11.740445 18.4997906,10.7855497 21.1082984,10.7855497 C26.8846335,10.7855497 26.8515707,16.1820942 26.8515707,19.1472251 L26.8515707,25.9675916 Z" id="Shape"></path>
        </g>
    </g>
</svg>