<?xml version="1.0" encoding="UTF-8"?>
<svg width="24px" height="24px" viewBox="0 0 24 24" version="1.1" xmlns="http://www.w3.org/2000/svg" xmlns:xlink="http://www.w3.org/1999/xlink">
    <!-- Generator: Sketch 50.2 (55047) - http://www.bohemiancoding.com/sketch -->
    <title>Icons / Back-end</title>
    <desc>Created with Sketch.</desc>
    <defs></defs>
    <g id="Icons-/-Back-end" stroke="none" stroke-width="1" fill="none" fill-rule="evenodd">
        <path d="M8,16.404686 C8,15.9365469 8.13437127,15.5681095 8.40311783,15.299363 C8.67186439,15.0306164 9.03163262,14.8962451 9.48243331,14.8962451 C9.95057249,14.8962451 10.3233444,15.0306164 10.6007602,15.299363 C10.878176,15.5681095 11.0168818,15.9365469 11.0168818,16.404686 C11.0168818,16.8554867 10.878176,17.2195895 10.6007602,17.4970053 C10.3233444,17.7744211 9.95057249,17.913127 9.48243331,17.913127 C9.03163262,17.913127 8.67186439,17.7744211 8.40311783,17.4970053 C8.13437127,17.2195895 8,16.8554867 8,16.404686 Z M20.4111221,9.26321562 C20.4111221,9.93849209 20.5501476,10.3986 20.8282026,10.6435533 C21.1062576,10.8885065 21.4968528,11.0109813 22,11.0109813 L22,13.1440235 C21.4968528,13.1440235 21.1062576,13.2764287 20.8282026,13.541243 C20.5501476,13.8060573 20.4111221,14.2297538 20.4111221,14.8123453 L20.4111221,19.9639522 C20.4111221,20.5862658 20.2555461,21.0894055 19.9443893,21.4733862 C19.6332325,21.8573669 19.159884,22.0493544 18.5243297,22.0493544 L16.3502003,22.0101103 L16.3502003,20.0821834 L17.3432489,20.0821834 C17.7007482,20.0821834 17.9622484,19.99281 18.1277574,19.8140603 C18.2932663,19.6353107 18.3760195,19.3340889 18.3760195,18.910386 L18.3760195,13.9302096 C18.3760195,13.3476181 18.5117348,12.9040608 18.7831695,12.5995244 C19.0546041,12.2949879 19.3756866,12.1096207 19.7464267,12.0434171 L20.2323734,12.0826613 C19.8748741,12.0296984 19.071155,11.6693706 18.7931,11.3184916 C18.5150449,10.9676127 18.3760195,10.514125 18.3760195,9.95801494 L18.3760195,5.25298713 C18.3760195,4.84252497 18.2965764,4.54461335 18.1376878,4.35924334 C17.9787993,4.17387333 17.7139889,4.08118971 17.3432489,4.08118971 L16.3502003,4.08118971 L16.3502003,2 L18.5441907,2.03924413 C19.1267821,2.03924413 19.5835799,2.21468098 19.9145978,2.56555992 C20.2456157,2.91643887 20.4111221,3.42950888 20.4111221,4.10478534 L20.4111221,9.26321562 Z M3.58887786,9.26321562 C3.58887786,9.93849209 3.44985243,10.3986 3.17179742,10.6435533 C2.8937424,10.8885065 2.50314717,11.0109813 2,11.0109813 L2,13.1440235 C2.50314717,13.1440235 2.8937424,13.2764287 3.17179742,13.541243 C3.44985243,13.8060573 3.58887786,14.2297538 3.58887786,14.8123453 L3.58887786,19.9639522 C3.58887786,20.5862658 3.74445392,21.0894055 4.05561072,21.4733862 C4.36676753,21.8573669 4.84011599,22.0493544 5.47567031,22.0493544 L7.64979975,22.0101103 L7.64979975,20.0821834 L6.65675109,20.0821834 C6.29925178,20.0821834 6.03775158,19.99281 5.87224265,19.8140603 C5.70673371,19.6353107 5.62398048,19.3340889 5.62398048,18.910386 L5.62398048,13.9302096 C5.62398048,13.3476181 5.48826519,12.9040608 5.21683053,12.5995244 C4.94539587,12.2949879 4.62431335,12.1096207 4.25357333,12.0434171 L3.76762661,12.0826613 C4.12512592,12.0296984 4.92884503,11.6693706 5.20690005,11.3184916 C5.48495506,10.9676127 5.62398048,10.514125 5.62398048,9.95801494 L5.62398048,5.25298713 C5.62398048,4.84252497 5.70342358,4.54461335 5.86231216,4.35924334 C6.02120074,4.17387333 6.28601107,4.08118971 6.65675109,4.08118971 L7.64979975,4.08118971 L7.64979975,2 L5.45580933,2.03924413 C4.87321787,2.03924413 4.41642006,2.21468098 4.08540218,2.56555992 C3.75438431,2.91643887 3.58887786,3.42950888 3.58887786,4.10478534 L3.58887786,9.26321562 Z" id="{.-}" fill="#FFFFFF"></path>
    </g>
</svg>