<?xml version="1.0" encoding="UTF-8"?>
<svg width="24px" height="24px" viewBox="0 0 24 24" version="1.1" xmlns="http://www.w3.org/2000/svg" xmlns:xlink="http://www.w3.org/1999/xlink">
    <!-- Generator: Sketch 50.2 (55047) - http://www.bohemiancoding.com/sketch -->
    <title>Icons / People</title>
    <desc>Created with Sketch.</desc>
    <defs></defs>
    <g id="Icons-/-People" stroke="none" stroke-width="1" fill="none" fill-rule="evenodd">
        <g id="Group-25" transform="translate(3.000000, 2.500000)" fill-rule="nonzero" stroke="#FFFFFF" stroke-width="2">
            <path d="M10.5071593,0.400955693 C9.18131944,-0.264288907 7.59380475,-0.0854317657 6.42911681,0.816451515 C5.87895161,1.24245826 5.48377222,1.81773161 5.23067271,2.45995499 C4.97433238,3.11049001 4.95548973,3.81257998 5.05842164,4.49536183 C5.15676478,5.14763915 5.40335397,5.78386445 5.71974987,6.36065159 C6.03210191,6.93006967 6.45082744,7.46926882 6.96594589,7.87028356 C7.49506009,8.28226622 8.10843564,8.56043449 8.7901839,8.56614695 C9.46728603,8.57183085 10.0915026,8.27741063 10.6143932,7.87028356 C11.1313472,7.46778359 11.543419,6.92932705 11.8605319,6.36065159 C12.1815166,5.7850355 12.4182112,5.14655378 12.5218601,4.49536183 C12.5598896,4.25635248 12.5860169,4.01560083 12.5872215,3.77347819 C12.5787322,2.36467115 11.7756396,1.03740949 10.5071593,0.400955693 Z" id="Shape"></path>
            <path d="M15.1908543,11.5732271 C14.472154,11.1911766 13.6595252,11.0017414 12.8430334,11.0017414 C12.5924022,11.0017414 12.341771,11.0017414 12.0911398,11.0017414 C11.84802,11.0017414 11.6065456,11.0099883 11.4293475,11.2072512 C10.4307216,12.3189121 10.106981,13.3983841 9.31982892,14.542199 C8.86357017,15.2027729 8.59495631,15.2027729 8.1143019,14.542199 C7.77886214,13.8312785 7.01127081,11.994765 6.66009384,11.6070885 C6.4240205,11.3464359 6.20518767,11.0017763 5.80629527,11.0017763 C5.24715914,11.0017763 4.69031222,10.9845136 4.13489604,11.057618 C3.26289121,11.1723414 2.47240321,11.5439783 1.78467866,12.0703155 C0.595369803,12.9805202 0,14.419578 0,15.8698531 C0,16.8953753 0,17.0345382 0,18.0600605 C0,18.3934329 0.284718752,18.6715928 0.62595203,18.6715928 C1.73982473,18.6715928 2.85369742,18.6715928 3.96753435,18.6715928 C6.24388939,18.6715928 8.52020866,18.6715928 10.7965637,18.6715928 C12.6374707,18.6715928 14.4783778,18.6715928 16.319249,18.6715928 C16.5798955,18.6715928 16.8405419,18.6715928 17.1011883,18.6715928 C17.4424216,18.6715928 17.7271403,18.3934329 17.7271403,18.0600605 C17.7271403,16.989809 17.7271403,16.8059169 17.7271403,15.7356655 C17.7169105,14.0129614 16.7430364,12.3984113 15.1908543,11.5732271 Z" id="Shape"></path>
        </g>
    </g>
</svg>