<?xml version="1.0" encoding="UTF-8"?>
<svg width="30px" height="30px" viewBox="0 0 30 30" version="1.1" xmlns="http://www.w3.org/2000/svg" xmlns:xlink="http://www.w3.org/1999/xlink">
    <!-- Generator: Sketch 50.2 (55047) - http://www.bohemiancoding.com/sketch -->
    <title>Icons / Rs-facebook</title>
    <desc>Created with Sketch.</desc>
    <defs></defs>
    <g id="Icons-/-Rs-facebook" stroke="none" stroke-width="1" fill="none" fill-rule="evenodd">
        <g id="036-facebook" fill="#475993" fill-rule="nonzero">
            <path d="M25.957337,0 L4.04258963,0 C1.80997346,0 0,1.80988679 0,4.04255996 L0,25.9572933 C0,28.1899664 1.80990007,29.9998532 4.04258963,29.9998532 L14.8508385,29.9998532 L14.8692589,19.2795288 L12.0841029,19.2795288 C11.7221522,19.2795288 11.4283792,18.9868587 11.4269848,18.6249107 L11.4136282,15.1693054 C11.4122338,14.8053759 11.7068875,14.5096236 12.0708196,14.5096236 L14.8509118,14.5096236 L14.8509118,11.1706312 C14.8509118,7.29576211 17.2174615,5.18586651 20.6741196,5.18586651 L23.510574,5.18586651 C23.8734787,5.18586651 24.1677655,5.48007769 24.1677655,5.84305312 L24.1677655,8.75683728 C24.1677655,9.11966594 23.8736989,9.41380373 23.510941,9.4140239 L21.770246,9.41483116 C19.8904069,9.41483116 19.5264014,10.3081059 19.5264014,11.6190299 L19.5264014,14.509697 L23.6570569,14.509697 C24.0506379,14.509697 24.3560062,14.8533714 24.3096249,15.2442342 L23.9000453,18.6998395 C23.860856,19.0305244 23.5804396,19.2796755 23.2474773,19.2796755 L19.5448219,19.2796755 L19.5264014,30 L25.9574838,30 C28.1900999,30 30,28.1901132 30,25.9575134 L30,4.04255996 C29.9999266,1.80988679 28.1900265,0 25.957337,0 Z" id="Shape"></path>
        </g>
    </g>
</svg>