<?xml version="1.0" encoding="UTF-8"?>
<svg width="24px" height="24px" viewBox="0 0 24 24" version="1.1" xmlns="http://www.w3.org/2000/svg" xmlns:xlink="http://www.w3.org/1999/xlink">
    <!-- Generator: Sketch 50.2 (55047) - http://www.bohemiancoding.com/sketch -->
    <title>Icons / Drupal-2</title>
    <desc>Created with Sketch.</desc>
    <defs></defs>
    <g id="Icons-/-Drupal-2" stroke="none" stroke-width="1" fill="none" fill-rule="evenodd" stroke-linecap="round" stroke-linejoin="round">
        <path d="M13.2863195,4.86341792 C12.7399665,4.51102466 11.9823358,3.61237731 11.3480081,2.85464767 C11.2247051,4.07045886 10.8722129,4.58148352 10.4316471,4.91626207 C9.53299976,5.62114755 8.96913095,5.8326231 8.19388557,6.25547522 C7.54184423,6.60796744 4,8.70481127 4,13.2510901 C4,14.7026218 4.38979979,16.031939 5.05866418,17.1692757 C6.48486235,19.5939709 9.17971586,21.1453523 12.0705083,21.1453523 C16.3172381,21.1453523 20,18.0615897 20,13.3921068 C20,10.8277803 18.9584557,9.03404811 17.9258178,7.87949259 C17.0781344,6.93166257 16.2365864,6.41440349 15.9823605,6.25547522 C15.0660985,5.6739917 14.1673522,5.44490144 13.2863195,4.86341792 Z" id="Path" stroke="#0A509B" stroke-width="2"></path>
    </g>
</svg>