<?xml version="1.0" encoding="UTF-8"?>
<svg width="36px" height="30px" viewBox="0 0 36 30" version="1.1" xmlns="http://www.w3.org/2000/svg" xmlns:xlink="http://www.w3.org/1999/xlink">
    <!-- Generator: Sketch 50.2 (55047) - http://www.bohemiancoding.com/sketch -->
    <title>Icons / Rs-twitter</title>
    <desc>Created with Sketch.</desc>
    <defs></defs>
    <g id="Icons-/-Rs-twitter" stroke="none" stroke-width="1" fill="none" fill-rule="evenodd">
        <g id="008-twitter" fill="#76A9EA" fill-rule="nonzero">
            <path d="M35.4274439,3.48993033 C34.6275803,3.84526325 33.7972598,4.12559024 32.9452597,4.32853714 C33.884066,3.43479701 34.5899262,2.3169184 34.9881465,1.06916432 C35.1018109,0.71295208 34.7156153,0.404926533 34.3945463,0.595650887 C33.209277,1.29998564 31.9325496,1.8283686 30.5997361,2.166291 C30.5224092,2.18589982 30.4426247,2.19583613 30.3625769,2.19583613 C30.1198003,2.19583613 29.8837821,2.10553004 29.6981449,1.94162492 C28.280105,0.689562187 26.4562965,0 24.5627972,0 C23.7434482,0 22.9161997,0.127940957 22.1039602,0.380305593 C19.5873695,1.16228424 17.6455958,3.24196229 17.0363722,5.80781598 C16.8078147,6.77023094 16.7459356,7.73352522 16.852315,8.67087958 C16.8645152,8.7785962 16.8136954,8.853778 16.7823609,8.8890387 C16.727328,8.95085484 16.649299,8.98629141 16.5682857,8.98629141 C16.5592452,8.98629141 16.5499414,8.98585175 16.5407253,8.98497243 C11.0319967,8.47224136 6.06446846,5.81344362 2.55316082,1.498448 C2.37410651,1.27835438 2.03074355,1.30534949 1.88802673,1.55059164 C1.20042308,2.73239676 0.837048164,4.08408637 0.837048164,5.45951761 C0.837048164,7.56742181 1.68237759,9.55389201 3.15071069,11.002043 C2.53323664,10.8553725 1.935599,10.6243753 1.38044288,10.3154705 C1.11186142,10.1659862 0.781400893,10.3581174 0.77762671,10.6658792 C0.739182696,13.797311 2.56922305,16.583698 5.31068493,17.8383987 C5.25547652,17.8397177 5.20026811,17.8403332 5.14497193,17.8403332 C4.71041414,17.8403332 4.27041451,17.7983017 3.83734885,17.7153819 C3.5348875,17.6575227 3.28078838,17.9449722 3.37470412,18.2387528 C4.26453381,21.0218863 6.65648871,23.0733382 9.51890002,23.5391136 C7.14327066,25.1367488 4.37679384,25.9794884 1.49744258,25.9794884 L0.599801206,25.9789608 C0.323232518,25.9789608 0.0893208858,26.159573 0.018840195,26.4279412 C-0.050587235,26.6922646 0.0772961602,26.9710968 0.31313877,27.1085344 C3.55770815,29.000214 7.2586027,30 11.0173388,30 C14.3074617,30 17.3850893,29.3458744 20.1648196,28.055913 C22.713096,26.8733165 24.9649672,25.1828251 26.8578521,23.0313946 C28.621186,21.0272501 30.0000797,18.7136731 30.9560892,16.1550299 C31.867423,13.7160619 32.3491142,11.1136286 32.3491142,8.62902398 L32.3491142,8.51066761 C32.3490264,8.11172045 32.529134,7.73633904 32.8433567,7.48080886 C34.0357356,6.51091968 35.074075,5.36921151 35.9294104,4.08742779 C36.155247,3.74897779 35.7990694,3.32479417 35.4274439,3.48993033 Z" id="Shape"></path>
        </g>
    </g>
</svg>